<svg xmlns="http://www.w3.org/2000/svg" viewBox="0 0 180 180">
  <rect width="180" height="180" rx="40" fill="#fff7ed" />
  <rect x="10" y="10" width="160" height="160" rx="34" fill="#fde68a" opacity="0.45" />
  <g transform="translate(2 4) rotate(-8 90 90)">
    <path d="M28 95c0-10 8-18 18-18h6c7-14 21-24 38-24h10c16 0 30 9 36 23 11 1 18 10 18 20 0 11-9 21-21 21h-4c-7 11-19 18-33 18H86c-14 0-27-6-34-17h-6c-10 0-18-8-18-18v-5Z" fill="#7f1d1d" />
    <path d="M34 96c0-7 6-13 13-13h10c5-12 17-20 31-20h8c13 0 25 8 30 19h9c8 0 14 6 14 14 0 8-6 14-14 14h-10c-5 10-16 16-29 16h-8c-12 0-23-6-29-16H47c-7 0-13-6-13-13v-1Z" fill="#b91c1c" />
    <path d="M42 96c0-4 3-7 7-7h14c3-10 13-17 25-17h6c12 0 21 7 25 16h14c4 0 7 3 7 7s-3 7-7 7h-15c-4 8-12 12-23 12h-6c-10 0-19-5-23-12H49c-4 0-7-3-7-7Z" fill="#ea580c" />
    <path d="M71 92c6-6 12-9 19-9 6 0 9 3 14 3 7 0 10-4 17-4 7 0 14 3 21 10" fill="none" stroke="#fca5a5" stroke-linecap="round" stroke-width="4" opacity="0.5" />
    <path d="M19 102c-8 2-13 8-13 15 0 4 2 8 5 12" fill="none" stroke="#92400e" stroke-linecap="round" stroke-width="3.5" />
    <path d="M11 97c-3 4-5 8-5 12 0 4 2 8 5 12" fill="none" stroke="#d97706" stroke-linecap="round" stroke-width="3.5" />
    <path d="M157 103c7 2 12 8 12 15 0 5-2 9-5 12" fill="none" stroke="#92400e" stroke-linecap="round" stroke-width="3.5" />
    <path d="M165 98c3 4 5 8 5 12 0 4-2 9-5 12" fill="none" stroke="#d97706" stroke-linecap="round" stroke-width="3.5" />
  </g>
</svg>