<svg xmlns="http://www.w3.org/2000/svg" viewBox="0 0 180 180">
  <rect width="180" height="180" rx="40" fill="#2f251f" />
  <circle cx="90" cy="90" r="70" fill="#6c4a3d" opacity="0.85" />
  <g transform="translate(4 6) rotate(-8 86 86)">
    <path d="M28 95c0-10 8-18 18-18h6c7-14 21-24 38-24h10c16 0 30 9 36 23 11 1 18 10 18 20 0 11-9 21-21 21h-4c-7 11-19 18-33 18H86c-14 0-27-6-34-17h-6c-10 0-18-8-18-18v-5Z" fill="#311610" />
    <path d="M42 96c0-4 3-7 7-7h14c3-10 13-17 25-17h6c12 0 21 7 25 16h14c4 0 7 3 7 7s-3 7-7 7h-15c-4 8-12 12-23 12h-6c-10 0-19-5-23-12H49c-4 0-7-3-7-7Z" fill="#f5783f" />
    <path d="M71 92c6-6 12-9 19-9 6 0 9 3 14 3 7 0 10-4 17-4 7 0 14 3 21 10" fill="none" stroke="#ffd0b4" stroke-linecap="round" stroke-width="4" opacity="0.52" />
    <path d="M19 102c-8 2-13 8-13 15 0 4 2 8 5 12" fill="none" stroke="#92400e" stroke-linecap="round" stroke-width="3.5" />
    <path d="M11 97c-3 4-5 8-5 12 0 4 2 8 5 12" fill="none" stroke="#d97706" stroke-linecap="round" stroke-width="3.5" />
    <path d="M157 103c7 2 12 8 12 15 0 5-2 9-5 12" fill="none" stroke="#92400e" stroke-linecap="round" stroke-width="3.5" />
    <path d="M165 98c3 4 5 8 5 12 0 4-2 9-5 12" fill="none" stroke="#d97706" stroke-linecap="round" stroke-width="3.5" />
  </g>
</svg>