<svg xmlns="http://www.w3.org/2000/svg" viewBox="0 0 180 180">
  <rect width="180" height="180" rx="40" fill="#0f172a" />
  <rect x="34" y="34" width="112" height="112" rx="22" fill="#ffffff" />
  <path
    d="M56 78c0-6.627 5.373-12 12-12h44c6.627 0 12 5.373 12 12v32c0 6.627-5.373 12-12 12H68c-6.627 0-12-5.373-12-12V78Z"
    fill="#0284c7"
  />
  <path
    d="M70 64c0-9.941 8.059-18 18-18h18c9.941 0 18 8.059 18 18v8h-14v-4c0-4.418-3.582-8-8-8H92c-4.418 0-8 3.582-8 8v4H70v-8Z"
    fill="#0f172a"
  />
  <path d="M84 86h24v12H84zM90 80v24h12V80z" fill="#ffffff" />
</svg>
