<svg xmlns="http://www.w3.org/2000/svg" viewBox="0 0 180 180">
  <rect width="180" height="180" rx="40" fill="#fff7ed" />
  <rect x="10" y="10" width="160" height="160" rx="34" fill="#fde68a" opacity="0.5" />
  <path d="M38 91c0-14 11-25 25-25h51c8 0 15 3 21 9l11 13c4 5 7 12 7 18 0 17-14 31-31 31H63c-14 0-25-11-25-25V91Z" fill="#f97316" />
  <path d="M48 94c0-10 8-18 18-18h48c5 0 10 2 14 6l9 10c3 4 5 8 5 13 0 11-9 20-20 20H66c-10 0-18-8-18-18V94Z" fill="#fb923c" />
  <path d="M57 87c7-6 12-8 18-8 6 0 10 3 15 3 7 0 9-4 16-4 6 0 12 3 19 9" fill="none" stroke="#7f1d1d" stroke-linecap="round" stroke-width="4" opacity="0.42" />
</svg>