<svg xmlns="http://www.w3.org/2000/svg" viewBox="0 0 512 512">
  <defs>
    <radialGradient id="bgGlow" cx="60%" cy="42%" r="58%">
      <stop offset="0%" stop-color="#8b5a47" stop-opacity="0.95" />
      <stop offset="55%" stop-color="#50372f" stop-opacity="0.92" />
      <stop offset="100%" stop-color="#2b231f" />
    </radialGradient>
    <radialGradient id="sausageFill" cx="35%" cy="35%" r="75%">
      <stop offset="0%" stop-color="#ff9862" />
      <stop offset="55%" stop-color="#f36a36" />
      <stop offset="100%" stop-color="#c44a24" />
    </radialGradient>
    <linearGradient id="rim" x1="0" x2="1">
      <stop offset="0%" stop-color="#6f2d1f" />
      <stop offset="100%" stop-color="#8e3e27" />
    </linearGradient>
    <filter id="softGlow" x="-20%" y="-20%" width="140%" height="140%">
      <feGaussianBlur stdDeviation="28" />
    </filter>
  </defs>
  <rect width="512" height="512" rx="124" fill="url(#bgGlow)" />
  <ellipse cx="282" cy="250" rx="190" ry="145" fill="#f08a53" opacity="0.36" filter="url(#softGlow)" />
  <g transform="translate(26 12) rotate(-8 230 250)">
    <path d="M102 344c-19-4-34-21-34-42 0-19 11-35 27-41-8-10-11-23-8-36 3-15 14-27 28-33 14-6 30-4 42 5l12 9c20-48 68-82 124-82 73 0 133 56 142 127l17 3c29 6 50 31 50 61 0 35-29 64-64 64-12 0-24-4-34-10-26 47-77 79-136 79-54 0-102-27-130-69l-10 8c-10 9-24 13-38 10Z" fill="#3b1e18" />
    <path d="M117 334c-14-3-24-15-24-29 0-13 8-24 20-28 9-3 18-1 26 5l17 13c11-57 61-100 121-100 68 0 123 55 123 123 0 12-2 24-5 35 11 10 25 16 40 16 23 0 42-19 42-42 0-20-14-37-34-41l-36-7v-6c0-60-49-109-109-109-49 0-90 32-104 77l-5 16-30-22c-7-5-16-6-24-3-8 4-14 11-15 20-2 8 1 17 7 24l8 10-12 4c-11 3-18 13-18 24 0 12 8 23 20 26 8 2 17 0 23-6l23-18 8 15c20 41 61 67 107 67 67 0 121-54 121-121 0-67-54-121-121-121-52 0-97 33-114 80l-5 14-29-22c-7-5-15-6-23-3-8 3-13 10-15 18-2 9 1 18 8 24l11 10-14 2c-13 2-22 13-22 26 0 14 10 26 24 29 7 1 13 0 18-4l20-16 9 12c23 32 60 51 99 51 67 0 122-54 122-121 0-21-5-41-15-59 16 21 25 48 25 76 0 67-55 122-122 122-42 0-81-21-104-56l-11 8c-10 8-23 11-35 8Z" fill="url(#rim)" opacity="0.95" />
    <path d="M143 335c-31-23-39-66-16-97l48-66c30-42 88-52 130-22l86 63c42 30 52 88 22 130l-48 66c-23 31-66 39-97 16l-109-79c-6-3-11-7-16-11Z" fill="url(#sausageFill)" />
    <path d="M162 319c-24-17-29-50-12-74l39-54c24-33 71-41 104-17l80 58c33 24 41 71 17 104l-39 54c-17 24-50 29-74 12l-115-83Z" fill="none" stroke="#f59a6c" stroke-width="2" opacity="0.35" />
    <path d="M162 320c-24-17-29-50-12-74l36-50 172 125-36 50c-17 24-50 29-74 12l-86-63Z" fill="#cf5227" opacity="0.45" />
    <path d="M191 299c17-6 39-7 61-2" fill="none" stroke="#ffd0b4" stroke-linecap="round" stroke-width="13" opacity="0.55" />
    <path d="M189 267c35-21 74-10 98 24" fill="none" stroke="#7b2d1f" stroke-linecap="round" stroke-width="9" opacity="0.42" />
    <path d="M253 216c24-10 48-3 64 17" fill="none" stroke="#7b2d1f" stroke-linecap="round" stroke-width="9" opacity="0.42" />
    <path d="M320 271c18-8 35-4 47 12" fill="none" stroke="#7b2d1f" stroke-linecap="round" stroke-width="9" opacity="0.42" />
    <path d="M203 239c18-8 27-27 19-43" fill="none" stroke="#ffbb94" stroke-linecap="round" stroke-width="15" opacity="0.55" />
    <path d="M171 298c43-17 87-25 131-25" fill="none" stroke="#ffb58f" stroke-linecap="round" stroke-width="18" opacity="0.3" />
    <path d="M101 340c-15 0-28 13-28 28 0 11 7 22 17 26 3 14 16 24 31 24 11 0 20-5 26-14 15 1 28-11 28-26 0-12-8-22-19-26 2-4 3-8 3-13 0-16-13-29-29-29-8 0-15 3-20 8-3-4-6-7-9-8Z" fill="#3b1e18" />
    <path d="M109 340c-12 0-21 9-21 21 0 7 4 14 11 18l8 4-1 9c0 10 8 18 18 18 7 0 13-3 16-9l4-7 8 1c8 0 15-7 15-15 0-6-3-11-9-14l-9-5 4-9c0-11-9-20-20-20-6 0-10 2-14 6l-7 8-7-5c-3-1-6-2-10-2Z" fill="#f36a36" />
    <path d="M107 355l41 10" fill="none" stroke="#7b2d1f" stroke-linecap="round" stroke-width="6" />
    <path d="M106 381l39-19" fill="none" stroke="#7b2d1f" stroke-linecap="round" stroke-width="6" />
    <path d="M390 118c-15 0-28 13-28 28 0 4 1 9 3 13-11 4-19 14-19 26 0 15 13 27 28 26 6 9 15 14 26 14 15 0 28-10 31-24 10-4 17-15 17-26 0-15-13-28-28-28-3 0-6 1-9 2-3-5-10-8-21-8Z" fill="#3b1e18" />
    <path d="M391 126c-11 0-20 9-20 20l4 9-9 5c-6 3-9 8-9 14 0 8 7 15 15 15l8-1 4 7c3 6 9 9 16 9 10 0 18-8 18-18l-1-9 8-4c7-4 11-11 11-18 0-12-9-21-21-21-4 0-7 1-10 2l-7 5-7-8c-4-4-8-6-14-6Z" fill="#f36a36" />
    <path d="M392 177l41-10" fill="none" stroke="#7b2d1f" stroke-linecap="round" stroke-width="6" />
    <path d="M394 175l29-32" fill="none" stroke="#7b2d1f" stroke-linecap="round" stroke-width="6" />
  </g>
</svg>