<svg xmlns="http://www.w3.org/2000/svg" viewBox="0 0 512 512">
  <rect width="512" height="512" rx="128" fill="#fff7ed" />
  <rect x="24" y="24" width="464" height="464" rx="112" fill="#fde68a" opacity="0.4" />
  <g transform="translate(28 8) rotate(-8 228 248)">
    <path d="M78 260c0-29 22-52 50-52h16c16-41 56-67 102-67h28c44 0 82 25 99 64 29 3 52 27 52 57 0 32-26 58-58 58h-15c-18 31-50 49-88 49h-28c-37 0-70-17-90-45h-18c-28 0-50-23-50-52v-12Z" fill="#7f1d1d" />
    <path d="M92 262c0-22 18-40 40-40h24c13-35 47-57 84-57h24c36 0 67 21 81 53h21c23 0 42 19 42 42 0 23-19 42-42 42h-23c-14 27-42 43-76 43h-24c-32 0-61-17-76-43h-19c-22 0-40-18-40-40v0Z" fill="#b91c1c" />
    <path d="M114 262c0-12 10-22 22-22h34c9-31 38-52 70-52h19c32 0 59 20 68 49h36c12 0 22 10 22 22 0 12-10 22-22 22h-38c-10 24-34 39-62 39h-19c-29 0-54-16-65-39h-43c-12 0-22-10-22-22Z" fill="#ea580c" />
    <path d="M176 245c12-13 27-20 44-20 14 0 21 6 33 6 15 0 22-8 38-8 17 0 34 8 50 23" fill="none" stroke="#fca5a5" stroke-linecap="round" stroke-width="10" opacity="0.5" />
    <path d="M119 248c-24 5-43 26-43 51 0 10 3 20 8 28" fill="none" stroke="#7f1d1d" stroke-linecap="round" stroke-width="10" />
    <path d="M388 245c23 7 39 27 39 50 0 11-4 22-10 31" fill="none" stroke="#7f1d1d" stroke-linecap="round" stroke-width="10" />
    <path d="M70 278c-21 3-36 21-36 42 0 12 5 22 13 30" fill="none" stroke="#92400e" stroke-linecap="round" stroke-width="8" />
    <path d="M48 267c-8 12-12 23-12 34 0 11 4 22 11 34" fill="none" stroke="#d97706" stroke-linecap="round" stroke-width="8" />
    <path d="M432 271c20 4 34 21 34 41 0 12-5 24-14 32" fill="none" stroke="#92400e" stroke-linecap="round" stroke-width="8" />
    <path d="M454 258c8 11 12 23 12 34 0 12-4 24-12 35" fill="none" stroke="#d97706" stroke-linecap="round" stroke-width="8" />
    <circle cx="222" cy="272" r="9" fill="#7f1d1d" opacity="0.28" />
    <circle cx="276" cy="295" r="8" fill="#7f1d1d" opacity="0.24" />
    <circle cx="323" cy="265" r="7" fill="#7f1d1d" opacity="0.22" />
  </g>
</svg>