<svg xmlns="http://www.w3.org/2000/svg" viewBox="0 0 512 512">
  <rect width="512" height="512" rx="120" fill="#0f172a" />
  <rect x="96" y="96" width="320" height="320" rx="56" fill="#ffffff" />
  <path
    d="M160 210c0-13.255 10.745-24 24-24h144c13.255 0 24 10.745 24 24v92c0 13.255-10.745 24-24 24H184c-13.255 0-24-10.745-24-24v-92Z"
    fill="#0ea5e9"
  />
  <path
    d="M198 174c0-17.673 14.327-32 32-32h52c17.673 0 32 14.327 32 32v18h-28v-10c0-6.627-5.373-12-12-12h-36c-6.627 0-12 5.373-12 12v10h-28v-18Z"
    fill="#0f172a"
  />
  <path d="M228 236h56v28h-56zM242 222v56h28v-56z" fill="#ffffff" />
</svg>
