<svg xmlns="http://www.w3.org/2000/svg" viewBox="0 0 512 512">
  <rect width="512" height="512" fill="#0f172a" />
  <circle cx="256" cy="256" r="176" fill="#ffffff" />
  <path
    d="M160 214c0-17.673 14.327-32 32-32h128c17.673 0 32 14.327 32 32v84c0 17.673-14.327 32-32 32H192c-17.673 0-32-14.327-32-32v-84Z"
    fill="#0284c7"
  />
  <path
    d="M202 190c0-19.882 16.118-36 36-36h36c19.882 0 36 16.118 36 36v16h-26v-8c0-8.837-7.163-16-16-16h-24c-8.837 0-16 7.163-16 16v8h-26v-16Z"
    fill="#0f172a"
  />
  <path d="M230 238h52v24h-52zM244 224v52h24v-52z" fill="#ffffff" />
</svg>
